<?xml version="1.0" encoding="UTF-8" standalone="no"?>
<!DOCTYPE svg PUBLIC "-//W3C//DTD SVG 1.1//EN" "http://www.w3.org/Graphics/SVG/1.1/DTD/svg11.dtd">
<svg width="100%" height="100%" viewBox="0 0 56 44" version="1.1" xmlns="http://www.w3.org/2000/svg" xmlns:xlink="http://www.w3.org/1999/xlink" xml:space="preserve" xmlns:serif="http://www.serif.com/" style="fill-rule:evenodd;clip-rule:evenodd;stroke-linecap:round;stroke-linejoin:round;stroke-miterlimit:1.5;">
    <rect id="kereru_snuggle-sticker" serif:id="kereru_snuggle sticker" x="0" y="0" width="56" height="44" style="fill:none;"/>
    <path d="M32.646,35.666c-1.237,0.767 -2.738,1.302 -4.284,1.657l0.369,0.072c0.67,0.121 1.747,2.245 1.203,2.515c-0.536,0.267 -1.42,-1.078 -2.553,-1.133c-1.461,-0.071 -3.166,1.073 -3.279,0.837c-0.113,-0.237 0.49,-1.157 1.374,-1.827c-1.506,0.147 -2.92,0.147 -4.026,0.048c-3.601,-0.322 -7.743,-1.361 -11.254,-4.032l-7.196,4.197l0,-7.5l6.274,-1.91c2.01,-2.288 5.711,-5.993 10.228,-8.168c2.261,-1.089 4.664,-1.841 6.796,-1.741c0.627,-0.155 1.181,-0.281 1.625,-0.381c-1.422,-1.094 -3.434,-2.703 -4.045,-6.523c-0.449,-2.8 1.155,-5.293 3.704,-6.77c3.041,-1.763 6.262,-1.023 8.318,0.772c1.89,1.65 2.783,4.52 4.454,5.119c1.271,0.455 1.884,0.38 2.588,0.52c0.181,-0.037 0.374,-0.05 0.579,-0.036c2.37,0.164 4.885,1.981 6.354,4.049c1.964,2.764 2.798,7.107 3.081,11.118c0.435,6.168 -2.51,9.264 -2.51,9.264c-0,0 -0.109,-0.327 -0.626,-1.796c-0.469,0.961 -1.158,1.845 -2.192,2.545c0.737,0.372 1.086,1.069 1.247,1.618c0.181,0.616 -0.081,1.718 -0.708,1.817c-0.533,0.084 -1.534,-1.497 -1.723,-1.556l-0.013,-0.001l-0.012,0.001c-0.189,0.059 -1.19,1.64 -1.723,1.556c-0.627,-0.099 -0.889,-1.201 -0.709,-1.817c0.027,-0.09 0.059,-0.185 0.096,-0.282c-0.763,0.133 -1.615,0.213 -2.567,0.229c-1.136,0.019 -2.304,-0.041 -3.428,-0.206c0.034,0.089 0.063,0.176 0.088,0.259c0.18,0.616 -0.082,1.718 -0.709,1.817c-0.533,0.084 -1.534,-1.497 -1.723,-1.556l-0.012,-0.001l-0.013,0.001c-0.189,0.059 -1.19,1.64 -1.723,1.556c-0.627,-0.099 -0.889,-1.201 -0.708,-1.817c0.135,-0.462 0.403,-1.027 0.922,-1.416c-0.589,-0.306 -1.118,-0.67 -1.564,-1.098Z" style="fill:none;stroke:#fff;stroke-width:5px;"/>
    <path d="M32.646,35.666c-1.237,0.767 -2.738,1.302 -4.284,1.657l0.369,0.072c0.67,0.121 1.747,2.245 1.203,2.515c-0.536,0.267 -1.42,-1.078 -2.553,-1.133c-1.461,-0.071 -3.166,1.073 -3.279,0.837c-0.113,-0.237 0.49,-1.157 1.374,-1.827c-1.506,0.147 -2.92,0.147 -4.026,0.048c-3.601,-0.322 -7.743,-1.361 -11.254,-4.032l-7.196,4.197l0,-7.5l6.274,-1.91c2.01,-2.288 5.711,-5.993 10.228,-8.168c2.261,-1.089 4.664,-1.841 6.796,-1.741c0.627,-0.155 1.181,-0.281 1.625,-0.381c-1.422,-1.094 -3.434,-2.703 -4.045,-6.523c-0.449,-2.8 1.155,-5.293 3.704,-6.77c3.041,-1.763 6.262,-1.023 8.318,0.772c1.89,1.65 2.783,4.52 4.454,5.119c1.271,0.455 1.884,0.38 2.588,0.52c0.181,-0.037 0.374,-0.05 0.579,-0.036c2.37,0.164 4.885,1.981 6.354,4.049c1.964,2.764 2.798,7.107 3.081,11.118c0.435,6.168 -2.51,9.264 -2.51,9.264c-0,0 -0.109,-0.327 -0.626,-1.796c-0.469,0.961 -1.158,1.845 -2.192,2.545c0.737,0.372 1.086,1.069 1.247,1.618c0.181,0.616 -0.081,1.718 -0.708,1.817c-0.533,0.084 -1.534,-1.497 -1.723,-1.556l-0.013,-0.001l-0.012,0.001c-0.189,0.059 -1.19,1.64 -1.723,1.556c-0.627,-0.099 -0.889,-1.201 -0.709,-1.817c0.027,-0.09 0.059,-0.185 0.096,-0.282c-0.763,0.133 -1.615,0.213 -2.567,0.229c-1.136,0.019 -2.304,-0.041 -3.428,-0.206c0.034,0.089 0.063,0.176 0.088,0.259c0.18,0.616 -0.082,1.718 -0.709,1.817c-0.533,0.084 -1.534,-1.497 -1.723,-1.556l-0.012,-0.001l-0.013,0.001c-0.189,0.059 -1.19,1.64 -1.723,1.556c-0.627,-0.099 -0.889,-1.201 -0.708,-1.817c0.135,-0.462 0.403,-1.027 0.922,-1.416c-0.589,-0.306 -1.118,-0.67 -1.564,-1.098Z" style="fill:none;stroke:#000;stroke-width:4px;"/>
    <g id="rear">
        <g>
            <path d="M39.611,10.456c-1.236,-1.036 -2.12,-3.289 -3.711,-4.677c-2.056,-1.795 -5.277,-2.535 -8.318,-0.772c-2.549,1.477 -4.153,3.97 -3.704,6.77c0.943,5.891 5.216,6.524 5.521,8.118c0.166,0.866 0.288,2.084 0.413,3.467c2.814,0.207 8.533,2.06 10.364,-0.362c1.401,-1.852 3.813,-6.465 -0.565,-12.544Z" style="fill:#57ae80;"/>
            <path d="M29.812,23.362c0.384,4.256 0.793,10.077 2.586,12.048c1.904,2.095 5.659,2.775 9.118,2.717c6.25,-0.106 8.196,-2.936 8.935,-5.876c1.443,-5.735 0.255,-16.369 -2.9,-18.88c-3.155,-2.511 -4.686,-1.573 -7.197,-2.473c-0.265,-0.095 -0.51,-0.247 -0.743,-0.442c1.057,5.159 0.16,7.156 -1.24,9.008c-1.831,2.423 -5.745,4.105 -8.559,3.898Z" style="fill:#dae8f8;"/>
        </g>
        <g>
            <path d="M52.962,26.635c0.402,6.11 -2.516,9.178 -2.516,9.178c-0,0 -0.368,-1.105 -2.952,-8.357c-2.108,-5.917 -5.534,-9.257 -6.318,-11.759c-0.569,-1.817 0.288,-4.458 2.345,-4.315c0.812,0.056 1.641,0.307 2.44,0.695c1.836,2.457 5.091,8.557 7.001,14.558Z" style="fill:#57ae80;"/>
            <path d="M45.961,12.077c-0.74,1.241 -0.551,3.535 1.754,6.825c2.211,3.152 4.597,10.095 4.597,10.095c0,-0 0.314,-0.924 0.65,-2.362c-0.002,-0.028 -0.004,-0.057 -0.006,-0.086c-0.283,-4.011 -1.117,-8.354 -3.081,-11.118c-0.965,-1.359 -2.383,-2.61 -3.914,-3.354Z" style="fill:#57465e;"/>
        </g>
        <path d="M46.419,38.441c-0.189,0.059 -1.19,1.64 -1.723,1.556c-0.627,-0.099 -0.889,-1.201 -0.709,-1.817c0.232,-0.788 0.848,-1.879 2.444,-1.879c1.597,0 2.213,1.091 2.444,1.879c0.181,0.616 -0.081,1.718 -0.708,1.817c-0.533,0.084 -1.534,-1.497 -1.723,-1.556l-0.013,-0.001l-0.012,0.001Zm-10.7,0c-0.189,0.059 -1.19,1.64 -1.723,1.556c-0.627,-0.099 -0.889,-1.201 -0.708,-1.817c0.231,-0.788 0.847,-1.879 2.444,-1.879c1.596,0 2.212,1.091 2.444,1.879c0.18,0.616 -0.082,1.718 -0.709,1.817c-0.533,0.084 -1.534,-1.497 -1.723,-1.556l-0.012,-0.001l-0.013,0.001Z" style="fill:#f55e22;"/>
    </g>
    <g id="front-outline" serif:id="front outline">
        <path d="M8.968,31.253c-0.84,-0.394 -1.335,-0.655 -1.335,-0.655c0,0 4.988,-6.863 11.869,-10.176c2.261,-1.089 4.664,-1.841 6.796,-1.741c1.25,-0.31 2.208,-0.501 2.586,-0.605c1.005,-0.276 1.388,-1.293 1.869,-2.453c0.797,-1.923 4.581,-3.424 7.497,-2.151c2.293,1 3.365,4.36 3.017,6.274c-0.012,0.065 -0.05,0.321 -0.124,0.675c0.602,0.528 1.007,3.272 0.79,3.481c-0.28,0.27 -2.164,-0.452 -2.839,-0.938c-0.828,-0.186 -1.823,-0.548 -2.253,0.046c-0.81,1.117 -0.338,1.686 -0.268,3.866c0.087,2.689 -1.027,6.912 -3.767,8.688c-1.267,0.822 -2.831,1.389 -4.444,1.759c0.183,0.035 0.32,0.063 0.369,0.072c0.67,0.121 1.747,2.245 1.203,2.515c-0.536,0.267 -1.42,-1.078 -2.553,-1.133c-1.461,-0.071 -3.166,1.073 -3.279,0.837c-0.113,-0.237 0.49,-1.157 1.374,-1.827c-1.506,0.147 -2.92,0.147 -4.026,0.048c-3.708,-0.332 -7.99,-1.424 -11.565,-4.275c-0.847,-0.675 -1.075,-1.462 -0.917,-2.307Z" style="fill:none;stroke:#000;stroke-width:3px;"/>
    </g>
    <g id="front">
        <path d="M28.731,37.395c0.67,0.121 1.747,2.245 1.203,2.515c-0.536,0.267 -1.42,-1.078 -2.553,-1.133c-1.461,-0.071 -3.166,1.073 -3.279,0.837c-0.16,-0.336 1.116,-2.04 2.59,-2.467c0.364,-0.105 1.849,0.213 2.039,0.248Z" style="fill:#f55e22;"/>
        <g>
            <path d="M32.705,13.763c1.559,-0.799 3.722,-1.087 5.545,-0.291c2.293,1 3.365,4.36 3.017,6.274c-0.034,0.186 -0.284,1.94 -0.98,3.06c-0.515,0.828 -2.74,-0.77 -3.446,0.204c-0.81,1.117 -0.338,1.686 -0.268,3.866c0.038,1.181 -0.155,2.656 -0.615,4.091c-0.517,-1.039 -2.498,-1.464 -3.153,-4.626c-0.569,-2.747 -2.352,-5.483 -3.854,-6.688c0.852,-0.845 3.506,-5.278 3.754,-5.89Z" style="fill:#57ae80;"/>
            <path d="M30.469,19.47c-1.056,0.177 -2.082,0.123 -2.076,-1.276c0.211,-0.048 0.377,-0.087 0.491,-0.118c1.005,-0.276 1.388,-1.293 1.869,-2.453c0.299,-0.721 1.017,-1.382 1.952,-1.86c-0.248,0.612 -0.456,1.349 -0.563,2.217c-0.182,1.469 -0.821,2.646 -1.673,3.49Z" style="fill:#3e7b80;"/>
            <path d="M35.958,30.967c-0.589,1.834 -1.614,3.601 -3.152,4.597c-3.232,2.095 -8.397,2.535 -11.356,2.271c-3.708,-0.332 -7.99,-1.424 -11.565,-4.275c-0.229,-0.182 -0.412,-0.372 -0.555,-0.57c0.137,-1.157 0.281,-2.349 0.413,-3.501c0.647,-1.01 1.589,-2.046 2.495,-3.027c2.507,-2.716 5.983,-4.986 9.105,-6.231c2.827,-1.127 5.765,-1.745 7.05,-2.037c1.993,0.886 4.768,3.064 5.606,7.114c0.655,3.163 1.442,4.62 1.959,5.659Z" style="fill:#dae8f8;"/>
            <path d="M41.017,20.345c0.67,0.218 1.148,3.334 0.916,3.557c-0.343,0.331 -3.089,-0.825 -3.078,-1.216c0.028,-1.031 1.742,-2.477 2.162,-2.341Z" style="fill:#f55e22;"/>
        </g>
        <g>
            <path d="M5.649,29.694c-0.108,0.477 -1.673,3.073 -1.649,3.806c0.05,1.524 1.336,1.977 2.443,2.492l8.557,-4.992l-2.143,-3.5l-7.208,2.194Z" style="fill:#47946b;"/>
            <path d="M5.649,29.694l-2.649,0.806l0,7.5l3.443,-2.008c-0.406,-1.216 -0.893,-2.968 -0.943,-4.492c-0.024,-0.733 0.041,-1.329 0.149,-1.806Z" style="fill:#57465e;"/>
        </g>
        <path d="M34.327,17.493c0.067,-0.409 0.453,-0.686 0.862,-0.619c0.408,0.067 0.686,0.453 0.619,0.861c-0.117,0.711 0.883,0.995 1.471,0.345c0.278,-0.307 0.753,-0.331 1.06,-0.053c0.307,0.278 0.33,0.753 0.052,1.06c-1.7,1.878 -4.4,0.459 -4.064,-1.594Z"/>
        <g>
            <path d="M19.787,20.287c4.488,-2.094 9.461,-2.786 11.734,1.88c2.322,4.766 0.183,10.142 -5.926,12.402c-1.288,0.477 -2.831,0.576 -4.465,0.436l-8.889,-3.729c-0,0 -0.183,-2.835 -0.658,-3.447c-0.366,-0.469 5.969,-5.263 8.204,-7.542Z" style="fill:#57ae80;"/>
            <path d="M21.13,35.005c-6.115,-0.526 -13.497,-4.407 -13.497,-4.407c0,0 4.988,-6.863 11.869,-10.176c0.095,-0.046 0.19,-0.091 0.285,-0.135c-2.235,2.279 -6.992,7.231 -6.627,7.7c0.476,0.612 4.351,-0.068 4.419,0.68c0.068,0.748 -3.603,2.175 -3.603,2.175l7.154,4.163Z" style="fill:#3e7b80;"/>
            <path d="M24.722,20.692c-2.8,0.942 -5.741,4.804 -5.741,4.804l2.371,0.998l-1.435,2.372c0,-0 5.678,1.559 8.112,0.124c2.433,-1.435 3.182,-4.18 2.183,-6.115c-0.998,-1.934 -2.984,-3.027 -5.49,-2.183Z" style="fill:#57465e;"/>
        </g>
    </g>
    <g id="overlapping-face" serif:id="overlapping face">
        <path d="M35.658,12.127l-3.841,0.672l-2.123,3.734l1.482,3.467l5,-0l0,-8l-0.518,0.127Z" style="fill:none;"/>
        <clipPath id="_clip1">
            <path d="M35.658,12.127l-3.841,0.672l-2.123,3.734l1.482,3.467l5,-0l0,-8l-0.518,0.127Z"/>
        </clipPath>
        <g clip-path="url(#_clip1)">
            <path d="M30.989,11.388c-0.929,0.364 -1.295,1.476 -0.596,2.515c0.591,0.879 2.163,1.699 2.57,1.587c0.487,-0.135 0.376,-1.93 0.268,-3.009c-0.102,-1.012 -1.075,-1.55 -2.242,-1.093Z" style="fill:none;stroke:#000;stroke-width:3px;"/>
        </g>
        <path d="M30.989,11.388c-0.929,0.364 -1.295,1.476 -0.596,2.515c0.591,0.879 2.163,1.699 2.57,1.587c0.487,-0.135 0.376,-1.93 0.268,-3.009c-0.102,-1.012 -1.075,-1.55 -2.242,-1.093Z" style="fill:#f55e22;"/>
        <path d="M33.042,7.668c0.484,-0.263 1.202,0.12 1.602,0.855c0.4,0.736 0.332,1.546 -0.152,1.81c-0.485,0.263 -1.203,-0.12 -1.603,-0.855c-0.4,-0.736 -0.331,-1.547 0.153,-1.81Zm-6.823,3.426c0.484,-0.263 1.202,0.12 1.602,0.855c0.4,0.736 0.332,1.546 -0.152,1.81c-0.485,0.263 -1.203,-0.12 -1.603,-0.855c-0.4,-0.736 -0.331,-1.547 0.153,-1.81Z"/>
    </g>
</svg>
